<svg xmlns="http://www.w3.org/2000/svg" viewBox="0 0 13.11 14.44"><defs><style>.cls-1{fill:#ceb162;fill-rule:evenodd;}</style></defs><g id="Layer_2" data-name="Layer 2"><g id="Layer_2-2" data-name="Layer 2"><path class="cls-1" d="M13.11,4.1c-.61.37-1.06.66-1.52.92s-.61.06-.6-.34a3.55,3.55,0,0,0-.47-2c-.41-.72-.94-1.32-1.41-2A.7.7,0,0,0,8.75.53C7.39.05,6-.32,4.64.42c0,0-.1,0-.14,0a1.35,1.35,0,0,0-1,.93.93.93,0,0,1-.25.32A3,3,0,0,0,2,4.14a1.15,1.15,0,0,1,0,.49,5.05,5.05,0,0,1-.32.59L0,4.2A3.53,3.53,0,0,0,.61,6.35a5.2,5.2,0,0,1,.86,1.56,1.22,1.22,0,0,1,.06.95.81.81,0,0,0,.31,1.08,2.25,2.25,0,0,1,.75,1.36C3,13,2.61,13,4,13.59c.12.06.21.2.32.27s.43.24.67.38A1.44,1.44,0,0,0,5,14c-.13-1.33-.27-2.65-.41-4a.43.43,0,0,0-.18-.28,2.17,2.17,0,0,1-1-1.54c0-.15-.17-.28-.21-.43-.08-.4-.38-.77-.08-1.28l1,.38.42-.29c.07.34,0,.65.39.75.58.15.83.63,1.07,1.12.13.25.29.49.48.8a6.08,6.08,0,0,1,.9-1.47,4.92,4.92,0,0,1,1.54-.88,2.18,2.18,0,0,0,.17-.92c0-.49.14-.63,0-.93a2.23,2.23,0,0,1,0-1V1.88s.23,1.6.23,1.71,0,.9,0,1.42-.07,1,0,1.49c0,.07.23,0,.23.07A2.27,2.27,0,0,0,10,6.36a5.44,5.44,0,0,1-.09.83c-.13.43-.33.83-.44,1.25a1.78,1.78,0,0,1-.75,1.14.85.85,0,0,0-.39.7c-.11,1.19-.24,2.38-.36,3.56a4.37,4.37,0,0,0,.05.6l1.25-1.21a1.06,1.06,0,0,0,.35,0c.47-.14.54-.53.59-.94a3.14,3.14,0,0,1,1.1-2.47.64.64,0,0,0,.18-.76,2.42,2.42,0,0,1,.74-2.42A6.1,6.1,0,0,0,13.11,4.1ZM6.49,7.18c-.28-.51-.52-.9-.72-1.3a.53.53,0,0,1,0-.39c.2-.39.43-.76.71-1.25l.82,1.4Z"/></g></g></svg>