<svg xmlns="http://www.w3.org/2000/svg" viewBox="0 0 13.45 15.38"><defs><style>.cls-1{fill:#ceb162;fill-rule:evenodd;}</style></defs><g id="Layer_2" data-name="Layer 2"><g id="Layer_2-2" data-name="Layer 2"><path class="cls-1" d="M11.71,5.82,9.43,5.57A2,2,0,0,1,9,5.4c.15-.42.28-.8.44-1.24.36,0,.73.06,1.09.11a1.6,1.6,0,0,0,1.71-.69l.24-.33,1,.72c-.12.91-.29,1.8-.35,2.71a1.89,1.89,0,0,1-1,1.58,4.52,4.52,0,0,0-2.35,3.55,1.16,1.16,0,0,1-.21.57c-.6.9-1.22,1.77-1.83,2.66a.62.62,0,0,1-.57.33H6.5a.86.86,0,0,1-.87-.46,5,5,0,0,0-.44-.59c.07-.18.14-.37.22-.61H4.86c-.13-.16-.26-.29-.36-.44a4.44,4.44,0,0,1-1-2,4.26,4.26,0,0,0-2.21-3A2.16,2.16,0,0,1,.25,6.55C.16,5.92.1,5.29,0,4.67,0,3.8,0,3.8.83,3.33L2.18,4.55l1.41-.39.86-.29a1.22,1.22,0,0,0,.92-1.59C4.77.73,5.68.66,6.43.14c.08-.05.16-.08.28-.14a12.41,12.41,0,0,1,1,.75A.9.9,0,0,1,7.83,2.2c.06.12.12.13.13.28a1.66,1.66,0,0,0,.8,1.32c.37.26.24.93-.22,1.4A3.69,3.69,0,0,1,6.72,3.87a5.76,5.76,0,0,1-5,1.87,1.39,1.39,0,0,0,.61,1.45,6.43,6.43,0,0,1,2.5,3.13A5.61,5.61,0,0,1,5,11c.06.23,0,.5.15.68.4.66.85,1.29,1.29,1.92a1.84,1.84,0,0,0,.28.26,7.89,7.89,0,0,0,2.2-4.63,2.37,2.37,0,0,0,.47-.31c.59-.56,1.13-1.18,1.75-1.69A1.47,1.47,0,0,0,11.71,5.82Z"/><path class="cls-1" d="M2.38,6.43c.24.19.37.27.49.38.48.47,1,.91,1.42,1.41a5.71,5.71,0,0,1,1,1.74V8.14c0-.67,0,0,.17-.45a.38.38,0,0,0,0-.1L5.3,5.75A8.07,8.07,0,0,1,2.38,6.43Z"/><path class="cls-1" d="M6.72,4.82a6.08,6.08,0,0,1-1.27.84h0V6.73a1.75,1.75,0,0,1,0,.86l0,.54-.2,2A8.89,8.89,0,0,1,5.6,11a4.3,4.3,0,0,0,1.16,1.9c.35-.74,1-1.2,1.07-2A5.1,5.1,0,0,1,9.18,8.15c.53-.58,1.1-1.12,1.69-1.71A6.78,6.78,0,0,1,6.72,4.82Z"/></g></g></svg>