<svg xmlns="http://www.w3.org/2000/svg" viewBox="0 0 8.87 18.88"><defs><style>.cls-1{fill:#ceb162;fill-rule:evenodd;}</style></defs><g id="Layer_2" data-name="Layer 2"><g id="Layer_2-2" data-name="Layer 2"><path class="cls-1" d="M2.58,7.74c.42.17.77.27,1.1.44a1.05,1.05,0,0,1,.59,1c0,1.14,0,2.28-.07,3.42,0,.22-.22.45-.36.71l.46.12v3.73h.15a9.34,9.34,0,0,0,.2-2c0-.89,0-1.77,0-2.66,0-.27-.1-.54-.11-.81,0-.79,0-1.59,0-2.38a1.14,1.14,0,0,1,.9-1.25,4.18,4.18,0,0,0,.72-.34c.17,1,.35,1.94.48,2.9.1.81.1,1.63.2,2.44.07.54.26,1.08.33,1.62a1.23,1.23,0,0,1-.16.79c-.84,1.13-1.71,2.22-2.63,3.4a10.5,10.5,0,0,1-1.54-2.21c0-.09-.14-.16-.22-.23a2.13,2.13,0,0,1-.42-.3A2.27,2.27,0,0,1,1.65,14c.24-1,.38-2,.53-3,.1-.69.12-1.4.2-2.09C2.42,8.53,2.51,8.15,2.58,7.74Z"/><path class="cls-1" d="M8.87,5.63c-.49.12-1,.25-1.47.35a1.26,1.26,0,0,0-1,.71,2,2,0,0,1-1.12.92L4.42,8a7.59,7.59,0,0,1-.74-.39c-.4-.27-.92-.5-1.13-.89a1.85,1.85,0,0,0-1.42-.86A7.12,7.12,0,0,1,0,5.56C.63,5.14,1.39,5.28,2,5c.12-.24.22-.47.34-.7a2.22,2.22,0,0,1,1-1A1.33,1.33,0,0,0,4.2,1.9,8.37,8.37,0,0,1,4.11.58,2,2,0,0,1,4.31,0c.35.15.46.31.41.63s-.08.83-.11,1.24a1.41,1.41,0,0,0,.82,1.4A2.81,2.81,0,0,1,6.67,4.71a.63.63,0,0,0,.51.41l1,.17.65.12C8.86,5.48,8.87,5.55,8.87,5.63ZM4.42,7.12C5.19,7,5.19,7,5.68,6.39a1.62,1.62,0,0,0-.36-2.33c-.46-.34-1,.2-1.39-.15-.06-.05-.33.12-.48.23a1.49,1.49,0,0,0-.56,1.73,3.51,3.51,0,0,0,.78,1.06C3.83,7.08,4.16,7.06,4.42,7.12Z"/><path class="cls-1" d="M4.41,4.68c.63.94.63.84,0,1.65-.1-.13-.19-.24-.28-.37l-.23-.37Z"/></g></g></svg>