<svg xmlns="http://www.w3.org/2000/svg" viewBox="0 0 73.48 64.76"><defs><style>.cls-1{fill:#555759;}</style></defs><g id="Layer_2" data-name="Layer 2"><g id="Layer_1-2" data-name="Layer 1"><path class="cls-1" d="M71.17,14.75,68.7,18.1l-2.39,3.39-2.65,3.26.88,5.11L64.77,35a4.35,4.35,0,0,1,.5,1.85c0,.34-.87-.15-1,.07-.18.41-1.13,2.1-1.13,2.1L60.45,42.5l-3.23,3-3.79,2.36.28-6-3.89-1.31-3.36-2-2.77-2.73-.88-3.71s-1.21-1.38-1-1.89c.12-.36,1.38-.62,1.38-.62l.18-1.3L46,25.52l3.71-.78,3.53.09-2.37-3.42-2.21-3.63-2.53-3.41L44,10.71,41.42,7.3,39.13,3.72,36.86.14V0l0,.07,0,0V.1L34.28,3.57,32,7.14l-2.22,3.63s.5,2,.18,2.5-2.44,1.09-2.44,1.09l-2.7,3.31-2.16,3.66-2.31,3.49,3.6-.15,3.62,1,2.64,2.72.66,3.75L30.17,36l-2.83,2.8-3.45,1.93L20.36,42l-.17,5.88-3.8-2.31-3.08-3.15-2.67-3.47-1.71-4-.18.1L9,29.85l.7-5L7.23,21.56,4.78,18.22,2.59,14.67,0,11.25l.56,4.3.73,4.15.33,4.2L2.45,28l.72,4.14.08,4.23.83,4.14.57,4.18.75,4,1.78,3.7L9.8,55.67l3.27,2.57,3.7,1.87,3.74,1.8,4,1,4,.88,4.11.45,4.43.5,1.86-1,2,.5,4.11-.53,4.09-.67,4-1L57,60.33,60.4,58,64,55.83l2.75-3.19,1.56-3.87.78-4.05.59-4.17.68-4.15.22-4.22.5-4.17,1-4.11.24-4.21.9-4.12.25-4ZM37,58.59l-5.14-8.87,1-1.78s.37.16.46.08,0-1,0-1a1.9,1.9,0,0,1,.83-.78,1.68,1.68,0,0,0,.64-.42,3.19,3.19,0,0,0,.06-1.26,1,1,0,0,1,.12-.6l2-3.81,5.13,9.59ZM62.35,16.1,59.22,6.29,53.1,13.61,58,20.21ZM19.64,13.64,14.16,6l-2.67,9.92,4.11,4.35Z"/></g></g></svg>