<svg xmlns="http://www.w3.org/2000/svg" viewBox="0 0 58.98 64.16"><defs><style>.cls-1{fill:#555759;}</style></defs><g id="Layer_2" data-name="Layer 2"><g id="Layer_1-2" data-name="Layer 1"><path class="cls-1" d="M50.81,23.42l-1.64-1.25c.52-3,.26-2.42,0-6a5.09,5.09,0,0,0-1-2.5c-.11-.14-1.11-.07-1.24-.28s.59-.75.4-1.12-.43-.92-.7-1.59c-3.32-3.23-1.24-2-3.82-4.71a21.68,21.68,0,0,1-1.78-2.52c-3.4-1.2-2.27-.29-5.76-1.84A6.74,6.74,0,0,1,32.35.9C29.4-.38,29.51,0,28.09.39a11.61,11.61,0,0,0-2.86,1,8.07,8.07,0,0,0-2.84,1c-1.85.17-1.19-.05-2.89.88-1.88.39-1.66.72-2.85,2.12-1,1.54.19,1.3-.78,2.39-.63.71-.66-.42-1.85,1.07A10.92,10.92,0,0,1,11.64,12a8.1,8.1,0,0,1-1.41,2.69c-.64,4.55-.05,2.21-.52,5.93l.15,1.53L8.2,23.46c-3.47-2.5-.27.14-5.41-3.53A25.29,25.29,0,0,1,0,18.13a69.34,69.34,0,0,1,2.21,8.62,9.6,9.6,0,0,1,1.92,3c1.79,1,1.36.43,2,2.22C7.86,38.7,9.27,34.54,7,42.24c2,2.55.67.35,2.93,3a8.05,8.05,0,0,0,2,2,8.65,8.65,0,0,1,.35,3c1.92,7.21.41,6.49,2.81,8.1a8.07,8.07,0,0,1,2.47,1.57c3.54,2.12,1.94,2.06,4.88,3.25l1.21,1.06-.2-1.58c0-4.75-.69-2.47-.49-5.83a14.93,14.93,0,0,1-.57-5.82c-1-5.92-.93-5.21-.73-7.31l-1.32-.71c-3.83-3.43-3.12-2.23-3.33-4.5A19.61,19.61,0,0,1,16.29,36a1.53,1.53,0,0,0-.78-1.08c-.25-.12-.21-.36-.48-1.71a7.77,7.77,0,0,1-.81-3.13.28.28,0,0,1,.07-.22c1.3-1.33.09-1.06,4.76,1,.28.17.05.32.26.46s1.47-2.51,1.58-2.45c.45.27,0,3.08.28,3.2a22.37,22.37,0,0,1,3,1.39c1.58.75,1.17.28,1.89,2a5.74,5.74,0,0,1,1.42,2.47,13.58,13.58,0,0,1,1.31,2.52,7.09,7.09,0,0,1,.74,1.25c1.87-3.42.5-1.78,2.23-3.68,2.26-5.36,1.53-3.06,5.73-5.73,7.6-3.18,5.67-4,7.32-2.41a.29.29,0,0,1,.07.28,9,9,0,0,0-.76,3.12c-.41,1.31-.41,1.53-.64,1.67a1.51,1.51,0,0,0-.67,1c-.63,3.09-1.23,5.72-5.27,7.7.06,1.75-1.56,16.41-2,20.3A8.93,8.93,0,0,0,39,61.46c.66-.47,1.15-.79,1.53-1s.22-3,.43-3.08.84,2.37,1.1,2.22A18.1,18.1,0,0,0,44,58.29c2.53-1.44.5.59,3.28-11,1.77-2.58.9-.41,3.83-4,.94-1.37.82-.79.37-2.61a13.25,13.25,0,0,0-.68-3.22,7.87,7.87,0,0,1,1.13-2.71c2.48-7.24,1.77-2.25,4.86-8,.52-1.58,1.37-5.62,1.39-5.67A18,18,0,0,0,59,18.21c-2.71,1.55-.94.63-4.07,2.61C51.9,23,53.74,21.22,50.81,23.42ZM32.35,26.74a.2.2,0,0,1-.25.09l-.59-.19.45.6a.11.11,0,0,1,0,.12l-.34.55L30.76,30l-1.27,2.12-1.15-2.19-1.29-2.16-1.13-2.25,1.25-2,1.09-2.11.11-.2s.25,0,.3-.07,0-.52,0-.52l.77-1.33,1.15,2.16,1.14,2.08,1.35,2Z"/></g></g></svg>