<svg xmlns="http://www.w3.org/2000/svg" viewBox="0 0 64.75 60.91"><defs><style>.cls-1{fill:#555759;}</style></defs><g id="Layer_2" data-name="Layer 2"><g id="Layer_1-2" data-name="Layer 1"><path class="cls-1" d="M20,23.63l-1.52,1L17.15,26,15.61,27,16,28.62l.33,1.62.53,1.57.38,1.61.3,1.62L18,36.59l1.83.78,1.85.93.75-1.57.77-1.52.72-1.54.86-1.47.77-1.52-.71-1.52-.78-1.47-.7-1.52-.64-1.56L21.36,24Zm.87,7.54,0,1.54L21,34.28l-1.88-.76.38-1.41.32-1.44-.4-1.56-.5-1.56,1.34-1.92,1.35.5.34,1.3.28,1.33L21.59,30Zm43.91-18.8-1.56-.6-1.65-.49-1.62-.55-1.65-.47L56.68,9.6,55,9.16l-1.64-.5-1.65-.48-1.57-.73-1.63-.52-1.69-.42L47,4.72l-1.89-.36L43.3,3.75l-1.77-.56-1.87.91-1.59-.53-1.65-.43-1.57-.68-1.66-.4-1.61-.53-1.64-.46L28.35.45,26.73,0,25.12.57l-1.59.68-1.59.68-1.56.82-1.2-.49-1.4.59-1.39.62L15,4.06l-1.33.75-1.42.52,0,.86-1.47.55-1.36.82-1.48.55-1.45.64L5,9.31l-1.49.62,0,1.68,0,1.64.09,1.64.1,1.64.15,1.64-.06,1.64,0,1.64L4,23.09l.07,1.64-.13,1.64L4,28l.19,1.64L4.13,31.3l0-.07-1,1.34L2.17,34l-1,1.36L0,36.64l.59,1.78.24,1.82L1.4,42l.4,1.79.34,1.8,1.74-.24,1.76,0,1.76-.26,1.46.79,1.47.71,1.5.64,1.56.51,1.4.86,1.54.54,1.49.67,1.47.7,1.47.69,1.55.54,1.46.72,1.52.59,1.42.81,1.57.5,1.41.83,1.59.53.58,1.5.42,1.55,1.79,1,1.68,1.13,1.46-.65,1.56-.47,1.53-.66.42-1.84.65-1.71,1.52-.7,1.49-.8,1.54-.67,1.5-.76,1.5-.77,1.51-.72L52,50.49l1.5-.76,1.58.19,1.56.28,1.57.45.39-1.71.58-1.61.59-1.61.43-1.67.59-1.63-.84-1.51L59,39.5,58.23,38l.45-1.59.41-1.6.35-1.61.48-1.59.33-1.62.52-1.57.39-1.61.29-1.63.49-1.58L62.43,22l.24-1.64.46-1.59.49-1.58.28-1.64L64.5,14Zm-6,1.2-1.89.72L55.05,15l-1.76.87-1.62-.42L50,15.16l-1.57-.38-1.6.72-1.68.65L43.61,17l-.13,1.47-.13,1.41-1.69.84-1.82.66-1.76.81-1.56-.5L35,21.11l-1.5-.67L32,19.81l-1.52-.6-1.59-.43-1.51-.63-1.45-.63.26-1.26,1.49-.75,1.57-.61,1.49-.79,1.53-.71a8.76,8.76,0,0,1,1.43-1.26,7.16,7.16,0,0,1,1.59-.23l1.6-.55,1.45-.89,1.6-.56,1.54-.69L43,8.45,44.5,9l1.59.43,1.59.46,1.56.5,1.55.57,1.55.56,1.58.49,1.55.55,1.59.45Zm-44-5,1.72,0,1.71.35,1.73.25,1.57-.9,1.62-.76,1.56-.74-.49-2.4,1.34-.64,1.4-.5,1.48.44,1.48.51,1.49.47,1.49.48,1.49.46,1.41.5-1.47.81-1.56.79-1.55.79-1.61.69L28,10.05l-1.55.78-1.51.9-1.64.62-1.55.81L20.24,14l-.08,1.46-1.64-.73-1.7-.49-1.59-.76-1.72-.43-1.59-.78-1.69-.5-1.74-.67,1.63-.69,1.55-.62,1.55-.61Zm38,38-1.44.71-1.43.82-1.5.68-1.51.66-1.49.7-1.48.74-1.43.83L41,52.37l-.63-1.64-.69-1.6L39,47.51l-.64-1.62-.67-1.59L36,44.15l-.57,1.52L34.56,47l-.71,1.4s.48,1,.38,1.37c-.18.55-1.77,1.46-1.77,1.46l-.78,1.43-1.53-.75-1.54-.59-1.5-.67-1.45-.79-1.53-.61-1.51-.66L21.09,48l-1.46-.76-1.5-.67-1.51-.66-1.53-.6-1.5-.68-1.46-.76-1.49-.71-1.5-.67-1.6-.54,0-1.69,0-1.66-.13-1.66.08-1.67,0-1.66-.13-1.65-.07-1.66.07-1.67L7.19,27l-.14-1.66,0-1.66L6.9,22l0-1.66V18.65L6.86,17V15.33L6.71,13.7,7.64,15l1.13,1.13.94,1.29,1.13,1.13s2.08.33,2.38.88c.19.34-.31,1.54-.31,1.54l.93,1.3,1,1.25,1.07,1.15,1.49-1.16,1.47-1.22L20.35,21l1.47.61,1.43.6.69,1.61.66,1.6.93,1.47.66,1.57L27.7,28l1.56-.39,1.48-.66,1.59-.31,1.49-.6,1.52-.54L36.89,25,37,25v1.69L37,28.4l.09,1.68L37,31.78v1.68l.07,1.69.14,1.69-.08,1.69.09,1.69,0,1.63.27-1.62.19-1.69.12-1.69L38,35.16l.3-1.67.2-1.69,0-1.71.18-1.68.39-1.67.12-1.68,1.47-.66,1.54-.54,1.49-.67,1.45-.75L46.64,22l-.18,1.52v1.62l-.27,1.6L46,28.32l-.11,1.61,1.45-.54,1.47-.52,1.44-.55,1.23-1.42.29-1.52.29-1.51.14-1.54.3-1.51.29-1.52,1.57-.72L56,18l1.54-.74,1.64-.53,1.61-.75-.39,1.69L60,19.25l-.62,1.56L59,22.43l-.4,1.62-.26,1.65-.44,1.61-.45,1.6-.55,1.58-.27,1.65-.56,1.57-.21,1.67L55.36,37,55,38.59l-.41,1.61-.43,1.61-.53,1.59L53.2,45Z"/></g></g></svg>