<svg xmlns="http://www.w3.org/2000/svg" viewBox="0 0 63.8 63.2"><defs><style>.cls-1{fill:#555759;}</style></defs><g id="Layer_2" data-name="Layer 2"><g id="Layer_1-2" data-name="Layer 1"><path class="cls-1" d="M60.52,32.6l-1.6,1.09L57.45,35,56.1,36.39l-1.56,1.14-1.69,1-1.49,1.24L49.89,41l-1.72.92-1.51,1.21-1.67,1-1.47,1.26-1.47,1.09.69-1.81,1.33-1.56.86-1.82,1.23-1.62L47,37.85l1-1.76.9-1.81,1.23-1.61L51,30.81l.89-1.8L53,27.21l-1.48,1.38-1.42,1.24-1.74.85-1.26,1.44-1.43,1.23-1.69.9L42.8,35.79l-1.65,1-1.37,1.31-1.51,1.12.47-1.8.6-1.77.54-1.79L40,31.92l.87-1.71.18-1.88.52-1.8.54-1.93-2.92,3.18-1.59,1.39L36.1,30.61l-1.37,4.26-.29-4.67.12-2-.22-1.95-.3-2,0-2-.3-1.95-.28-1.95L33,16.49l.31-2-.49-1.93-.28-2,.11-2,0-2-.23-1.95-.57-1.93,0-2.75-.32,2.72-.12,2,.09,2-.22,2-.19,2-.52,1.93-.2,2,.07,2-.2,2-.38,1.95.14,2-.14,2-.58,1.93.27,2-.09,2-.4,4.61-1.64-4L26,29.26l-1.27-1.69-3.1-2.83.55,1.78.25,1.86.89,1.7.36,1.83.26,1.87.73,1.74.19,1.88L25.35,39,24,38l-1.46-1.19-1.42-1.25-1.5-1.14L18,33.44l-1.35-1.32-1.48-1.18-1.37-1.3-1.37-1.31-1.77-1.19,1.17,1.91.81,1.86L14,32.43l.82,1.85,1,1.75.82,1.85,1.68,1.76.32,1.74,1,1.73L21,44.68l.8,1.87-1.5-1.23-1.77-.86L17.16,43l-1.69-1L14,40.71l-1.62-1.06-1.69-1L9.46,37.14l-1.68-1-1.67-1-1.4-1.37L3.1,32.74l-1.45-1.3L0,30.47,1.29,32l1.47,1.35,1.3,1.51,1.47,1.35L7,37.51,8.35,39l1.2,1.62,1.54,1.28,1.26,1.55,1.34,1.48,1.48,1.33,1.41,1.4,1.25,1.57L21,50.26l-.24,1.61,1.55,1.27,1.14,1.67L25.09,56l1.18,1.64,1.61,1.21,1.3,1.51,1.3,1.51,1.38,1.3,1.22-1.45,1.5-1.32L36,59l1.29-1.53,1.44-1.37L39,54.42l2.5-1.13,1.33-1.49,1.68-1.14,1.33-1.49L47,47.49,48.33,46l1.51-1.31,1.53-1.29,1.31-1.51,1.53-1.29,1.37-1.44,1.27-1.54,1.29-1.53,1.52-1.3L61,33.33l1.38-1.45,1.45-1.47ZM16.64,26.3l-1.08-4.14L11.32,18l2.06,5.76ZM47,24.59,45.31,29l4.77-4.83Z"/></g></g></svg>