<svg xmlns="http://www.w3.org/2000/svg" viewBox="0 0 1208.12 1208.11"><defs><style>.cls-1{fill:#ceb162;}</style></defs><g id="Layer_2" data-name="Layer 2"><g id="Layer_2-2" data-name="Layer 2"><path class="cls-1" d="M346.92,60.59l-1.37-2.93C336.93,61.72,328.3,66,319.9,70.5l1.51,2.85C329.77,68.92,338.35,64.63,346.92,60.59ZM819.56,40.35q-6.7-2.58-13.44-5l-1.1,3q6.72,2.4,13.38,5Zm-776,346.39-3-1.16q-2.58,6.69-5,13.44l3,1.1Q41,393.4,43.53,386.74ZM385.15,1164.9q6.69,2.58,13.43,5l1.1-3q-6.72-2.43-13.37-5Zm776.58-345.18,3,1.16q2.58-6.69,5-13.42l-3-1.11C1165.12,810.83,1163.44,815.27,1161.73,819.72ZM859.18,1148.31c8.71-4.09,17.35-8.4,25.67-12.79l-1.5-2.86c-8.29,4.38-16.88,8.65-25.53,12.73Zm160.36-980.89c-6.91-6.54-14.07-13-21.28-19.21l-2.11,2.44c7.17,6.18,14.3,12.61,21.17,19.12Zm-838.15,14A599.5,599.5,0,0,1,560.47,7.47l-.2-2.72q14.28-1,28.61-1.35L589,6c4.75-.14,9.5-.2,14.26-.22l0-2.57A598.3,598.3,0,0,1,778,29.39l.95-3.09a602.74,602.74,0,0,0-419,24.84l-1.25.56,1.29,3,1.29-.56q20.28-8.94,41.06-16.3A603.15,603.15,0,0,0,179.09,179.13l-1.26,1.28,2.28,2.28Zm858.27,837.24,2.34,2.23c6.66-7,13.14-14.14,19.28-21.23l-2.45-2.12C1052.73,1004.58,1046.28,1011.69,1039.66,1018.65ZM170.18,192.94l-2.35-2.23c-6.57,6.94-13.05,14.09-19.23,21.26l2.44,2.11C157.2,207,163.64,199.84,170.18,192.94Zm859.09,836.35A599.7,599.7,0,0,1,789.21,1176a602.62,602.62,0,0,0,56.56-21.59l.31-.13-1.18-3a4.2,4.2,0,0,0-.49.21,599.43,599.43,0,0,1-417.67,24.41l-.95,3.09a601.23,601.23,0,0,0,180.44,26.57v2.54c4.79,0,9.57-.06,14.35-.18l-.07-2.61q14.28-.42,28.52-1.52l.2,2.73a602.6,602.6,0,0,0,382.33-175l.42-.43-2.28-2.28Zm178.67-438.58-2.47.06q-.29-14.29-1.25-28.56l2.34-.16a602.52,602.52,0,0,0-175-382.92l-1.74-1.74-2.27,2.3,1.72,1.72a599.45,599.45,0,0,1,103.63,139.1l-.9.49c4.44,8.34,8.74,16.92,12.79,25.49l1.09-.51q3.09,6.43,6,13l-1.19.52.77,1.74a599.23,599.23,0,0,1,24.28,418.09l3.09,1a601.79,601.79,0,0,0,26.72-175.19h2.53Q1208.11,597.87,1207.94,590.71ZM190.25,1042.43c6.9,6.56,14,13,21.24,19.26l2.11-2.44c-7.15-6.19-14.26-12.63-21.12-19.16ZM7.42,649.61l-2.33.17Q4,635.5,3.53,621.18L6,621.11q-.2-7.12-.21-14.24H3.25A598.34,598.34,0,0,1,29.54,427.18l-3.09-.95a602.55,602.55,0,0,0,24.7,419.49l.36.84,1.18-.52q2.87,6.56,5.87,13.05l-1.1.52c4,8.61,8.35,17.24,12.81,25.66l1-.51a602.92,602.92,0,0,0,107.88,146.81l.86.86,2.28-2.29-.85-.85A599.42,599.42,0,0,1,7.42,649.61Zm977.52,335.9c-210.87,210.87-554,210.87-764.86,0l-9.14,9.14c215.91,215.91,567.22,215.91,783.14,0Zm-774-774,9.14,9.14c210.87-210.87,554-210.87,764.86,0l9.14-9.14C778.17-4.41,426.85-4.41,210.94,211.51Z"/></g></g></svg>